<svg xmlns="http://www.w3.org/2000/svg" viewBox="0 0 198.94 182.72"><defs><style>.cls-1{fill:#e1b168;}.cls-2{fill:#5fbe7f;}.cls-3{fill:#32a3ae;}</style></defs><title>Asset 1</title><g id="Layer_2" data-name="Layer 2"><g id="Layer_2-2" data-name="Layer 2"><path class="cls-1" d="M198.94,99.39a99.08,99.08,0,0,0-30.08-71.22L132.42,52.76A7.9,7.9,0,0,1,134,57.45V68.68l28.56-16.9v86.11L134,121v10.13a8,8,0,0,1-8,8H103.34l14.86,22h14.13v21.61h66.6V100h0C198.93,99.82,198.94,99.61,198.94,99.39Z"/><path id="Green" class="cls-2" d="M103.34,139.08H52.18a8,8,0,0,1-8-8V112.29L0,142.13v40.59H66.6V161.11h51.6Z"/><path id="Blue" class="cls-3" d="M.16,99.39c0,.22,0,.43,0,.65h0v42l44.21-29.84V57.45a8,8,0,0,1,8-8H126a7.94,7.94,0,0,1,6.41,3.28l36.44-24.59A99.38,99.38,0,0,0,.16,99.39Z"/></g></g></svg>