<svg id="Layer_2" data-name="Layer 2" xmlns="http://www.w3.org/2000/svg" viewBox="0 0 198.78 182.72"><defs><style>.cls-1{fill:#0db68b;}.cls-2{fill:#fff;}</style></defs><title>AUIO.pro</title><path class="cls-1" d="M453.2,433.48a99.39,99.39,0,1,0-198.78,0c0,.22,0,.44,0,.66h0v82.67H321V495.2h65.7v21.61h66.46V434.14h0C453.19,433.92,453.2,433.7,453.2,433.48Z" transform="translate(-254.42 -334.09)"/><path class="cls-2" d="M284.26,446.9,322.06,480q3.15-12.08,6.29-24.13c7.59-.38,23.6-2.32,38.22-13.73,30.93-24.15,25.41-67,25.09-69.29-3-.37-44.47-4.85-68.75,25.59-11.82,14.84-14.08,31.08-14.61,38.78Z" transform="translate(-254.42 -334.09)"/><polygon class="cls-2" points="33.99 124.55 20.21 141.65 30.22 153.23 17.44 158.79 45.81 155.06 56.85 144.08 47.54 136.97 43.25 142.16 41.47 147.24 38.94 134.84 43.82 132.13 33.99 124.55"/><polygon class="cls-2" points="138.08 120.91 145.58 94.41 150.08 121.41 174.08 126.41 151.08 132.41 142.58 155.91 136.58 131.91 113.58 123.41 138.08 120.91"/><circle class="cls-1" cx="96.91" cy="79.24" r="9.19"/></svg>